<svg width="125" height="54" viewBox="0 0 125 54" fill="none" xmlns="http://www.w3.org/2000/svg">
<path d="M1.46204 1.23496C1.29385 1.022 1.20508 0.904465 1.20508 0.904465C1.20508 0.904465 1.29501 1.02586 1.46204 1.23496C2.56272 2.62861 7.06477 8.10912 12.3488 11.483C20.2912 16.5542 28.0667 9.69482 36.3205 14.2417C41.6471 17.176 44.6099 19.6311 47.7066 24.8651C50.6019 29.7588 50.5554 38.8966 50.5554 38.8966C50.5554 38.8966 50.4421 49.1375 54.4271 50.8113C56.4074 51.6431 56.416 51.8514 58.9269 50.8599C62.9471 49.2723 62.0548 39.0206 62.0548 39.0206C62.0548 39.0206 61.9253 29.7547 63.7124 24.4099C65.1039 20.2484 67.8004 17.1648 70.8252 13.986C75.6285 8.93836 91.9437 7.21562 105.41 6.6782L124.908 6.56887C124.908 6.56887 116.048 6.25362 105.41 6.6782L63.9011 6.91095L30.4031 6.54967L16.9039 6.40408C16.9039 6.40408 10.5662 7.86385 7.70508 6.54967C4.80159 5.21603 2.25754 2.23083 1.46204 1.23496Z" fill="#45594A"/>
<path d="M124.908 6.56887C124.908 6.56887 79.4232 4.95049 70.8252 13.986C67.8004 17.1648 65.1039 20.2484 63.7124 24.4099C61.9253 29.7547 62.0548 39.0206 62.0548 39.0206C62.0548 39.0206 62.9471 49.2723 58.9269 50.8599C56.416 51.8514 56.4074 51.6431 54.4271 50.8113C50.4421 49.1375 50.5554 38.8966 50.5554 38.8966C50.5554 38.8966 50.6019 29.7588 47.7066 24.8651C44.6099 19.6311 41.6471 17.176 36.3205 14.2417C28.0667 9.69482 20.2912 16.5542 12.3488 11.483C6.25732 7.59356 1.20508 0.904465 1.20508 0.904465C1.20508 0.904465 4.19196 4.93601 7.70508 6.54967C10.5662 7.86385 16.9039 6.40408 16.9039 6.40408L30.4031 6.54967L63.9011 6.91095L124.908 6.56887Z" stroke="#45594A" stroke-width="3"/>
</svg>
